<svg xmlns="http://www.w3.org/2000/svg" viewBox="0 0 512 512" width="64" height="64">
  <!-- 便签纸外轮廓 -->
  <path fill="#fae155" stroke="#000" stroke-width="8" d="M100 50 C 80 50, 60 70, 60 90 L 60 422 C 60 442, 80 462, 100 462 L 412 462 C 432 462, 452 442, 452 422 L 452 90 C 452 70, 432 50, 412 50 Z" />
  
  <!-- 便签纸的折角 -->
  <path fill="#e4c95c" stroke="#000" stroke-width="8" d="M378 462 L 452 388 L 452 422 C 452 442, 432 462, 412 462 Z" />
  
  <!-- 水平线条 -->
  <line x1="150" y1="160" x2="360" y2="160" stroke="#000" stroke-width="4" />
  <line x1="150" y1="210" x2="360" y2="210" stroke="#000" stroke-width="4" />
  <line x1="150" y1="260" x2="360" y2="260" stroke="#000" stroke-width="4" />
  <line x1="150" y1="310" x2="360" y2="310" stroke="#000" stroke-width="4" />
  <line x1="150" y1="360" x2="360" y2="360" stroke="#000" stroke-width="4" />
  
  <!-- 回形针 -->
  <path fill="none" stroke="#000" stroke-width="12" d="M100 80 Q70 110, 70 140 L 70 165 Q 70 195, 100 195 Q 130 195, 130 165 L 130 115 Q 130 85, 100 85" />
  <path fill="#eee" stroke="#000" stroke-width="4" d="M100 80 Q70 110, 70 140 L 70 165 Q 70 195, 100 195 Q 130 195, 130 165 L 130 115 Q 130 85, 100 85" />
  
  <!-- 钢笔 -->
  <g transform="translate(270, 330) rotate(-45)">
    <!-- 笔身 -->
    <rect x="-120" y="-20" width="240" height="40" rx="5" ry="5" fill="#111" stroke="#000" stroke-width="4" />
    
    <!-- 笔尖 -->
    <polygon points="-150,-15 -120,-15 -120,15 -150,15" fill="#eee" stroke="#000" stroke-width="4" />
    <polygon points="-180,0 -150,-15 -150,15" fill="#ddd" stroke="#000" stroke-width="4" />
    
    <!-- 笔中间装饰 -->
    <rect x="0" y="-20" width="10" height="40" fill="#eee" stroke="#000" stroke-width="2" />
  </g>
</svg> 